<svg xmlns="http://www.w3.org/2000/svg" width="1200" height="88" viewBox="0 0 1200 88" role="img" aria-label="A little curiosity. A little code. A world of possibilities."><path d="M0 1H1200" stroke="#DBCBC0"/><path d="M0-130 22-76 49-94 48-45 88-62 77-18 130-25 91 20 105 45 41 54 36 100 8 83 4 142-5 142-9 83-37 100-42 54-104 45-91 20-130-25-77-18-88-62-48-45-49-94-22-76Z" transform="translate(350 46) rotate(-16) scale(.07)" fill="#A63F43"/><text x="375" y="51" font-family="Georgia,'Times New Roman',serif" font-style="italic" font-size="18" fill="#776062">A little curiosity. A little code. A world of possibilities.</text></svg>
